<svg width="52" height="52" viewBox="0 0 52 52" xmlns="http://www.w3.org/2000/svg">
<path d="M16 24.75C15.3096 24.75 14.75 25.3096 14.75 26C14.75 26.6904 15.3096 27.25 16 27.25L16 24.75ZM36.8839 26.8839C37.372 26.3957 37.372 25.6043 36.8839 25.1161L28.9289 17.1612C28.4408 16.673 27.6493 16.673 27.1612 17.1612C26.673 17.6493 26.673 18.4408 27.1612 18.9289L34.2322 26L27.1612 33.0711C26.673 33.5592 26.673 34.3507 27.1612 34.8388C27.6493 35.327 28.4408 35.327 28.9289 34.8388L36.8839 26.8839ZM16 27.25L36 27.25L36 24.75L16 24.75L16 27.25Z"/>
</svg>
