<svg width="224" height="56" viewBox="0 0 224 56" fill="none" xmlns="http://www.w3.org/2000/svg">
<g clip-path="url(#clip0_56_91)">
<path d="M16.5905 25.7267V18.5155H32.4069V39.7638H23.4337L23.1128 36.5936H22.9844C21.3077 39.214 18.1429 40.5263 13.4938 40.5263C7.64142 40.5263 3.7465 38.4717 1.80907 34.3544C0.601687 31.738 0 27.059 0 20.3213C0 13.5837 0.774171 8.6478 2.32251 5.95514C4.64903 1.98638 9.36225 0 16.4622 0C22.4429 0 26.6427 1.21992 29.0535 3.65976C31.031 5.69832 32.0218 8.88456 32.0218 13.2185H19.8837V11.6334C19.8837 8.68391 18.7847 7.20717 16.5905 7.20717C15.2106 7.20717 14.2881 7.7168 13.8147 8.73608C13.4698 9.39018 13.2973 10.4857 13.2973 12.0146V28.0742C13.2973 31.5695 14.4164 33.3191 16.6547 33.3191C18.203 33.3191 19.2379 32.7733 19.7554 31.6818C20.1004 30.9916 20.2728 29.9001 20.2728 28.4033V25.7267H16.5945H16.5905Z" fill="white"/>
<path d="M33.8309 39.7639V0.766602H44.7495V30.9195H56.6509V39.768H33.8269L33.8309 39.7639Z" fill="white"/>
<path d="M75.271 39.7639L74.0716 33.8088H66.7551L65.664 39.7639H54.4165L63.6424 0.766602H77.3488L86.5225 39.768H75.275L75.271 39.7639ZM72.8682 25.2894L70.5217 9.28598H70.4133L67.9023 25.2894H72.8722H72.8682Z" fill="white"/>
<path d="M101.043 11.9627V10.3776C101.043 8.26678 100.189 7.20738 98.4762 7.20738C96.7634 7.20738 95.9651 8.19054 95.9651 10.1569C95.9651 12.1232 97.3731 13.8367 100.185 15.0727C104.93 17.1875 107.562 18.4234 108.075 18.7886C110.887 20.8633 112.295 23.889 112.295 27.8578C112.295 32.3723 111.172 35.6147 108.929 37.581C106.687 39.5473 103.029 40.5305 97.9587 40.5305C93.5825 40.5305 90.3735 39.6958 88.3317 38.0184C86.1055 36.2367 84.9944 33.2671 84.9944 29.1138V28.0744H95.5881V29.8762C95.5881 32.1716 96.5067 33.3193 98.3438 33.3193C100.181 33.3193 101.047 32.1716 101.047 29.8762C101.047 28.7486 100.827 27.8899 100.39 27.308C100.133 26.9067 99.5672 26.4693 98.6888 25.9958C97.5576 25.45 95.7485 24.5953 93.2656 23.4275C90.197 21.8986 88.1512 20.4419 87.1284 19.0575C85.9611 17.5286 85.3755 15.3616 85.3755 12.5566C85.3755 7.74912 86.7593 4.36223 89.5271 2.39591C91.7854 0.794767 94.7497 -0.0078125 98.428 -0.0078125C103.486 -0.0078125 107.02 1.17599 109.022 3.5436C110.55 5.36546 111.316 8.17048 111.316 11.9546H101.051L101.043 11.9627Z" fill="white"/>
<path d="M113.218 39.764V0.766602H128.942C132.399 0.766602 135.083 1.58523 136.996 3.22651C138.906 4.86377 139.864 7.2675 139.864 10.4377C139.864 13.1705 139.134 15.3334 137.678 16.9386C136.587 18.1063 135.239 18.8688 133.639 19.234V19.3423C138.408 19.8158 140.791 22.8737 140.791 28.5198C140.791 32.308 139.752 35.1652 137.678 37.0954C135.749 38.8811 133.037 39.772 129.543 39.772H113.218V39.764ZM124.136 8.63188V16.1159H125.773C127.883 16.1159 128.938 14.88 128.938 12.4C128.938 9.92002 127.826 8.63188 125.608 8.63188H124.132H124.136ZM124.136 22.994V31.8987H126.045C128.376 31.8987 129.539 30.4982 129.539 27.6932C129.539 24.5591 128.392 22.994 126.102 22.994H124.136Z" fill="white"/>
<path d="M142.375 39.7639V0.766602H165.853V9.61504H153.294V15.6224H165.035V24.1417H153.294V30.9155H166.342V39.7639H142.371H142.375Z" fill="white"/>
<path d="M167.49 39.7639V0.766602H190.967V9.61504H178.408V15.6224H190.149V24.1417H178.408V30.9155H191.457V39.7639H167.486H167.49Z" fill="white"/>
<path d="M203.635 15.6224L209.913 0.766602H221.762L212.151 17.9177L222.961 39.768H210.679L205.107 26.8223L203.523 29.828V39.768H192.604V0.766602H203.523V15.6224H203.631H203.635Z" fill="white"/>
<path d="M3.12889 52.2601C3.12889 52.6133 3.19307 52.9142 3.32143 53.159C3.44979 53.4038 3.61826 53.6045 3.82685 53.757C4.03945 53.9094 4.28413 54.0218 4.56091 54.098C4.84169 54.1703 5.13853 54.2064 5.4514 54.2064C5.65598 54.2064 5.8766 54.1903 6.11326 54.1542C6.34992 54.1181 6.57054 54.0539 6.77512 53.9536C6.97969 53.8573 7.15217 53.7208 7.28855 53.5483C7.42494 53.3757 7.49313 53.159 7.49313 52.8942C7.49313 52.6093 7.40087 52.3805 7.22036 52.204C7.03986 52.0274 6.79918 51.8789 6.50636 51.7545C6.21354 51.6341 5.88061 51.5298 5.50756 51.4455C5.13452 51.3613 4.75746 51.2649 4.37639 51.1566C3.98329 51.0603 3.60222 50.9399 3.22917 50.7954C2.85613 50.651 2.52319 50.4704 2.23037 50.2457C1.93755 50.0209 1.69688 49.74 1.51637 49.407C1.33587 49.0739 1.24361 48.6606 1.24361 48.171C1.24361 47.6293 1.35993 47.1638 1.58857 46.7665C1.82123 46.3692 2.12207 46.0401 2.49512 45.7713C2.86816 45.5064 3.28934 45.3098 3.76267 45.1814C4.23199 45.053 4.70531 44.9888 5.17463 44.9888C5.72417 44.9888 6.24964 45.049 6.75506 45.1734C7.26048 45.2978 7.70974 45.4944 8.10284 45.7713C8.49594 46.0482 8.80481 46.3973 9.03746 46.8227C9.27011 47.248 9.38242 47.7657 9.38242 48.3757H7.14415C7.12409 48.0627 7.05991 47.8018 6.94359 47.5972C6.83127 47.3885 6.68286 47.228 6.49433 47.1116C6.30981 46.9952 6.0932 46.9109 5.84852 46.8628C5.60383 46.8146 5.3431 46.7906 5.07034 46.7906C4.88181 46.7906 4.69729 46.8106 4.51277 46.8508C4.32826 46.8909 4.15577 46.9591 4.00334 47.0594C3.85092 47.1557 3.72657 47.2801 3.62629 47.4366C3.53002 47.5891 3.47787 47.7737 3.47787 47.9864C3.47787 48.1991 3.51798 48.3596 3.5942 48.488C3.67041 48.6164 3.82685 48.7328 4.05549 48.8331C4.28413 48.9375 4.60503 49.0458 5.01418 49.1582C5.41931 49.2705 5.95281 49.411 6.61065 49.5795C6.73901 49.6076 6.90347 49.6518 7.11206 49.7039C7.31663 49.7561 7.53725 49.8323 7.76589 49.9246C7.99453 50.0169 8.22719 50.1373 8.45583 50.2858C8.68447 50.4343 8.89706 50.6149 9.0896 50.8315C9.28214 51.0482 9.43457 51.3051 9.55491 51.602C9.67123 51.903 9.7314 52.2481 9.7314 52.6414C9.7314 53.1229 9.63914 53.5683 9.45062 53.9817C9.2661 54.395 8.98531 54.7481 8.62029 55.0491C8.25125 55.3461 7.79798 55.5828 7.25245 55.7554C6.70692 55.9279 6.07716 56.0122 5.36316 56.0122C4.78554 56.0122 4.22396 55.94 3.67843 55.7915C3.1329 55.643 2.65557 55.4183 2.24241 55.1133C1.82925 54.8123 1.50033 54.4231 1.24762 53.9536C0.998921 53.4841 0.878584 52.9223 0.886607 52.2762H3.12488L3.12889 52.2601Z" fill="white"/>
<path d="M19.4346 51.7748C19.4346 53.1994 19.0375 54.2588 18.2433 54.957C17.449 55.6553 16.35 56.0004 14.946 56.0004C13.5421 56.0004 12.423 55.6553 11.6408 54.961C10.8586 54.2668 10.4695 53.2074 10.4695 51.7748V45.2378H12.78V51.7748C12.78 52.0597 12.804 52.3406 12.8522 52.6135C12.9003 52.8904 13.0046 53.1352 13.161 53.3479C13.3175 53.5646 13.5341 53.7371 13.8149 53.8655C14.0956 53.9939 14.4687 54.0541 14.942 54.0541C15.7643 54.0541 16.3339 53.8695 16.6508 53.5044C16.9637 53.1352 17.1201 52.5613 17.1201 51.7748V45.2378H19.4306V51.7748H19.4346Z" fill="white"/>
<path d="M20.8304 45.2378H26.4943C26.9636 45.2378 27.3888 45.314 27.7659 45.4665C28.1429 45.619 28.4678 45.8277 28.7366 46.0925C29.0053 46.3574 29.2139 46.6664 29.3543 47.0195C29.4947 47.3727 29.5669 47.7459 29.5669 48.1391C29.5669 48.7571 29.4345 49.2908 29.1778 49.7443C28.9171 50.1977 28.4919 50.5388 27.9063 50.7756V50.8037C28.1911 50.8839 28.4277 51.0043 28.6122 51.1648C28.7968 51.3254 28.9492 51.522 29.0695 51.7467C29.1859 51.9714 29.2741 52.2162 29.3262 52.4771C29.3784 52.7379 29.4185 52.9987 29.4386 53.2636C29.4466 53.4281 29.4586 53.6288 29.4666 53.8535C29.4747 54.0782 29.4947 54.3069 29.5188 54.5397C29.5429 54.7724 29.583 54.9931 29.6351 55.2098C29.6873 55.4265 29.7715 55.6071 29.8798 55.7556H27.5693C27.5011 55.5871 27.449 55.4025 27.4129 55.2018C27.3808 55.0012 27.3487 54.7885 27.3246 54.5678C27.3006 54.3471 27.2805 54.1183 27.2645 53.8896C27.2484 53.6609 27.2284 53.4402 27.2003 53.2355C27.1201 52.6857 26.9556 52.2844 26.6989 52.0276C26.4422 51.7748 26.025 51.6464 25.4474 51.6464H23.1369V55.7556H20.8264V45.2458L20.8304 45.2378ZM23.1409 49.9931H25.672C26.1935 49.9931 26.5866 49.8767 26.8553 49.6399C27.1241 49.4032 27.2605 49.022 27.2605 48.4923C27.2605 47.9625 27.1241 47.6094 26.8553 47.3807C26.5866 47.1479 26.1895 47.0356 25.672 47.0356H23.1409V49.9931Z" fill="white"/>
<path d="M30.8667 45.2374H38.2554V47.1797H33.1772V49.6075H37.5775V51.4012H33.1772V55.7432H30.8667V45.2334V45.2374Z" fill="white"/>
<path d="M41.0634 45.2378H43.434L47.361 55.7476H44.9623L44.1681 53.4081H40.241L39.4147 55.7476H37.0762L41.0634 45.2378ZM40.8427 51.6865H43.5664L42.2427 47.8301H42.2146L40.8467 51.6865H40.8427Z" fill="white"/>
<path d="M54.6893 48.7688C54.6492 48.504 54.561 48.2632 54.4246 48.0385C54.2882 47.8178 54.1157 47.6211 53.9111 47.4566C53.7066 47.2881 53.4699 47.1596 53.2132 47.0673C52.9525 46.975 52.6797 46.9269 52.3949 46.9269C51.8734 46.9269 51.4322 47.0272 51.0712 47.2279C50.7102 47.4285 50.4133 47.6974 50.1887 48.0385C49.9641 48.3755 49.7996 48.7608 49.6953 49.1942C49.591 49.6276 49.5389 50.073 49.5389 50.5345C49.5389 50.996 49.591 51.4053 49.6953 51.8226C49.7996 52.24 49.9641 52.6172 50.1887 52.9503C50.4133 53.2833 50.7102 53.5522 51.0712 53.7528C51.4322 53.9535 51.8734 54.0538 52.3949 54.0538C53.1009 54.0538 53.6544 53.8371 54.0515 53.3997C54.4487 52.9623 54.6933 52.3965 54.7816 51.6982H57.0199C56.9597 52.3563 56.8073 52.9503 56.5626 53.48C56.3179 54.0097 55.993 54.4631 55.5919 54.8363C55.1907 55.2095 54.7174 55.4944 54.1799 55.6991C53.6384 55.8997 53.0487 56.0001 52.3989 56.0001C51.5846 56.0001 50.8586 55.8556 50.2208 55.5707C49.583 55.2858 49.0415 54.9005 48.6003 54.4109C48.159 53.9214 47.8221 53.3395 47.5854 52.6734C47.3487 52.0072 47.2324 51.2929 47.2324 50.5385C47.2324 49.7841 47.3487 49.0377 47.5854 48.3595C47.8221 47.6813 48.159 47.0914 48.6003 46.5938C49.0415 46.0922 49.583 45.703 50.2208 45.418C50.8586 45.1331 51.5846 44.9927 52.3989 44.9927C52.9765 44.9927 53.5261 45.0769 54.0395 45.2415C54.5529 45.406 55.0142 45.6508 55.4234 45.9678C55.8285 46.2888 56.1655 46.6821 56.4302 47.1516C56.6949 47.6211 56.8634 48.1629 56.9316 48.7728H54.6933L54.6893 48.7688Z" fill="white"/>
<path d="M58.0027 45.2374H65.8607V47.1797H60.3132V49.4309H65.4034V51.2247H60.3132V53.8009H65.977V55.7432H58.0027V45.2334V45.2374Z" fill="white"/>
<path d="M72.7763 47.18H69.6274V45.2378H78.2356V47.18H75.0867V55.7476H72.7763V47.18Z" fill="white"/>
<path d="M78.8532 45.2378H84.5171C84.9864 45.2378 85.4116 45.314 85.7887 45.4665C86.1657 45.619 86.4906 45.8277 86.7594 46.0925C87.0282 46.3574 87.2367 46.6664 87.3771 47.0195C87.5215 47.3727 87.5897 47.7459 87.5897 48.1391C87.5897 48.7571 87.4614 49.2908 87.2006 49.7443C86.9399 50.1977 86.5147 50.5388 85.9291 50.7756V50.8037C86.2139 50.8839 86.4505 51.0043 86.6351 51.1648C86.8196 51.3254 86.972 51.522 87.0923 51.7467C87.2087 51.9714 87.2969 52.2162 87.3491 52.4771C87.4012 52.7379 87.4413 52.9987 87.4574 53.2636C87.4654 53.4281 87.4774 53.6288 87.4854 53.8535C87.4935 54.0782 87.5135 54.3069 87.5376 54.5397C87.5617 54.7724 87.6018 54.9931 87.6539 55.2098C87.7061 55.4265 87.7903 55.6071 87.8986 55.7556H85.5881C85.5199 55.5871 85.4678 55.4025 85.4317 55.2018C85.3956 55.0012 85.3675 54.7885 85.3434 54.5678C85.3194 54.3471 85.2993 54.1183 85.2833 53.8896C85.2672 53.6609 85.2472 53.4402 85.2191 53.2355C85.1389 52.6857 84.9744 52.2844 84.7177 52.0276C84.461 51.7748 84.0438 51.6464 83.4662 51.6464H81.1557V55.7556H78.8452V45.2458L78.8532 45.2378ZM81.1637 49.9931H83.6948C84.2163 49.9931 84.6094 49.8767 84.8781 49.6399C85.1469 49.4032 85.2833 49.022 85.2833 48.4923C85.2833 47.9625 85.1469 47.6094 84.8781 47.3807C84.6094 47.1479 84.2123 47.0356 83.6948 47.0356H81.1637V49.9931Z" fill="white"/>
<path d="M88.8894 45.2374H96.7474V47.1797H91.1999V49.4309H96.2902V51.2247H91.1999V53.8009H96.8638V55.7432H88.8894V45.2334V45.2374Z" fill="white"/>
<path d="M100.707 45.2378H103.077L107.004 55.7476H104.605L103.811 53.4081H99.8842L99.0619 55.7476H96.7234L100.711 45.2378H100.707ZM100.486 51.6865H103.21L101.886 47.8301H101.858L100.49 51.6865H100.486Z" fill="white"/>
<path d="M108.564 47.18H105.416V45.2378H114.024V47.18H110.875V55.7476H108.564V47.18Z" fill="white"/>
<path d="M114.642 45.2378H117.895L120.354 52.465H120.382L122.708 45.2378H125.961V55.7476H123.799V48.2996H123.771L121.196 55.7476H119.415L116.84 48.3719H116.812V55.7476H114.65V45.2378H114.642Z" fill="white"/>
<path d="M127.397 45.2374H135.255V47.1797H129.708V49.4309H134.798V51.2247H129.708V53.8009H135.372V55.7432H127.397V45.2334V45.2374Z" fill="white"/>
<path d="M136.346 45.2378H138.641L143.025 52.2885H143.053V45.2378H145.215V55.7476H142.905L138.537 48.7089H138.508V55.7476H136.346V45.2378Z" fill="white"/>
<path d="M148.986 47.18H145.837V45.2378H154.445V47.18H151.296V55.7476H148.986V47.18Z" fill="white"/>
<path d="M160.137 52.2601C160.137 52.6133 160.201 52.9142 160.33 53.159C160.458 53.4038 160.626 53.6045 160.839 53.757C161.052 53.9094 161.296 54.0218 161.573 54.098C161.854 54.1703 162.151 54.2064 162.464 54.2064C162.668 54.2064 162.889 54.1903 163.125 54.1542C163.362 54.1181 163.583 54.0539 163.787 53.9536C163.992 53.8573 164.164 53.7208 164.301 53.5483C164.437 53.3757 164.505 53.159 164.505 52.8942C164.505 52.6093 164.413 52.3805 164.233 52.204C164.052 52.0274 163.815 51.8789 163.519 51.7545C163.226 51.6341 162.889 51.5298 162.516 51.4455C162.143 51.3613 161.766 51.2649 161.385 51.1566C160.991 51.0603 160.61 50.9399 160.237 50.7954C159.864 50.651 159.531 50.4704 159.235 50.2457C158.942 50.0209 158.701 49.74 158.521 49.407C158.34 49.0739 158.248 48.6606 158.248 48.171C158.248 47.6293 158.364 47.1638 158.593 46.7665C158.821 46.3692 159.122 46.0401 159.499 45.7713C159.872 45.5064 160.293 45.3098 160.767 45.1814C161.236 45.053 161.709 44.9888 162.179 44.9888C162.728 44.9888 163.254 45.049 163.759 45.1734C164.265 45.2978 164.714 45.4944 165.107 45.7713C165.5 46.0482 165.809 46.3973 166.042 46.8227C166.27 47.248 166.387 47.7657 166.387 48.3757H164.148C164.128 48.0627 164.064 47.8018 163.948 47.5972C163.835 47.3885 163.687 47.228 163.498 47.1116C163.314 46.9952 163.097 46.9109 162.853 46.8628C162.608 46.8146 162.347 46.7906 162.07 46.7906C161.886 46.7906 161.697 46.8106 161.513 46.8508C161.328 46.8909 161.156 46.9591 161.003 47.0594C160.851 47.1557 160.727 47.2801 160.63 47.4366C160.53 47.5891 160.482 47.7737 160.482 47.9864C160.482 48.1991 160.522 48.3596 160.598 48.488C160.679 48.6164 160.831 48.7328 161.064 48.8331C161.292 48.9375 161.613 49.0458 162.018 49.1582C162.423 49.2705 162.957 49.411 163.615 49.5795C163.743 49.6076 163.908 49.6518 164.116 49.7039C164.321 49.7561 164.541 49.8323 164.77 49.9246C164.999 50.0169 165.231 50.1373 165.46 50.2858C165.689 50.4343 165.901 50.6149 166.094 50.8315C166.286 51.0482 166.439 51.3051 166.559 51.602C166.675 51.903 166.736 52.2481 166.736 52.6414C166.736 53.1229 166.643 53.5683 166.455 53.9817C166.27 54.395 165.989 54.7481 165.624 55.0491C165.255 55.3461 164.802 55.5828 164.257 55.7554C163.711 55.9279 163.081 56.0122 162.367 56.0122C161.79 56.0122 161.228 55.94 160.683 55.7915C160.137 55.643 159.66 55.4183 159.247 55.1133C158.833 54.8123 158.504 54.4231 158.252 53.9536C158.003 53.4841 157.883 52.9223 157.891 52.2762H160.129L160.137 52.2601Z" fill="white"/>
<path d="M170.25 51.6583L166.379 45.2417H168.982L171.437 49.391L173.88 45.2417H176.455L172.556 51.7185V55.7515H170.246V51.6583H170.25Z" fill="white"/>
<path d="M178.324 52.2601C178.324 52.6133 178.388 52.9142 178.517 53.159C178.645 53.4038 178.813 53.6045 179.022 53.757C179.235 53.9094 179.479 54.0218 179.756 54.098C180.037 54.1703 180.334 54.2064 180.647 54.2064C180.851 54.2064 181.072 54.1903 181.308 54.1542C181.545 54.1181 181.766 54.0539 181.97 53.9536C182.175 53.8573 182.347 53.7208 182.488 53.5483C182.624 53.3757 182.692 53.159 182.692 52.8942C182.692 52.6093 182.6 52.3805 182.42 52.204C182.239 52.0274 181.998 51.8789 181.706 51.7545C181.409 51.6341 181.076 51.5298 180.703 51.4455C180.33 51.3613 179.953 51.2649 179.568 51.1566C179.174 51.0603 178.793 50.9399 178.42 50.7954C178.047 50.651 177.714 50.4704 177.421 50.2457C177.129 50.0209 176.888 49.74 176.707 49.407C176.527 49.0739 176.435 48.6606 176.435 48.171C176.435 47.6293 176.551 47.1638 176.78 46.7665C177.008 46.3692 177.313 46.0401 177.686 45.7713C178.059 45.5064 178.48 45.3098 178.95 45.1814C179.419 45.053 179.892 44.9888 180.362 44.9888C180.911 44.9888 181.437 45.049 181.942 45.1734C182.448 45.2978 182.897 45.4944 183.29 45.7713C183.683 46.0482 183.992 46.3973 184.225 46.8227C184.457 47.248 184.57 47.7657 184.57 48.3757H182.331C182.311 48.0627 182.247 47.8018 182.131 47.5972C182.018 47.3885 181.87 47.228 181.681 47.1116C181.497 46.9952 181.28 46.9109 181.036 46.8628C180.791 46.8146 180.53 46.7906 180.257 46.7906C180.073 46.7906 179.884 46.8106 179.7 46.8508C179.511 46.8909 179.343 46.9591 179.19 47.0594C179.038 47.1557 178.914 47.2801 178.813 47.4366C178.717 47.5891 178.665 47.7737 178.665 47.9864C178.665 48.1991 178.705 48.3596 178.781 48.488C178.862 48.6164 179.014 48.7328 179.247 48.8331C179.479 48.9375 179.796 49.0458 180.201 49.1582C180.61 49.2705 181.14 49.411 181.798 49.5795C181.926 49.6076 182.091 49.6518 182.299 49.7039C182.504 49.7561 182.724 49.8323 182.953 49.9246C183.182 50.0169 183.414 50.1373 183.643 50.2858C183.872 50.4343 184.084 50.6149 184.277 50.8315C184.469 51.0482 184.622 51.3051 184.738 51.602C184.854 51.903 184.915 52.2481 184.915 52.6414C184.915 53.1229 184.822 53.5683 184.634 53.9817C184.449 54.395 184.168 54.7481 183.803 55.0491C183.434 55.3461 182.981 55.5828 182.436 55.7554C181.89 55.9279 181.26 56.0122 180.546 56.0122C179.969 56.0122 179.407 55.94 178.862 55.7915C178.316 55.643 177.839 55.4183 177.426 55.1133C177.012 54.8123 176.683 54.4231 176.431 53.9536C176.182 53.4841 176.062 52.9223 176.07 52.2762H178.308L178.324 52.2601Z" fill="white"/>
<path d="M188.039 47.18H184.89V45.2378H193.499V47.18H190.35V55.7476H188.039V47.18Z" fill="white"/>
<path d="M194.116 45.2374H201.974V47.1797H196.427V49.4309H201.517V51.2247H196.427V53.8009H202.091V55.7432H194.116V45.2334V45.2374Z" fill="white"/>
<path d="M203.062 45.2378H206.315L208.774 52.465H208.802L211.128 45.2378H214.381V55.7476H212.219V48.2996H212.191L209.616 55.7476H207.835L205.26 48.3719H205.232V55.7476H203.07V45.2378H203.062Z" fill="white"/>
<path d="M217.394 52.2601C217.394 52.6133 217.458 52.9142 217.586 53.159C217.715 53.4038 217.883 53.6045 218.092 53.757C218.304 53.9094 218.549 54.0218 218.83 54.098C219.11 54.1703 219.407 54.2064 219.72 54.2064C219.925 54.2064 220.145 54.1903 220.382 54.1542C220.615 54.1181 220.839 54.0539 221.044 53.9536C221.248 53.8573 221.421 53.7208 221.557 53.5483C221.694 53.3757 221.766 53.159 221.766 52.8942C221.766 52.6093 221.674 52.3805 221.493 52.204C221.313 52.0274 221.072 51.8789 220.779 51.7545C220.486 51.6341 220.149 51.5298 219.776 51.4455C219.403 51.3613 219.026 51.2649 218.641 51.1566C218.248 51.0603 217.867 50.9399 217.494 50.7954C217.121 50.651 216.788 50.4704 216.495 50.2457C216.198 50.0209 215.962 49.74 215.781 49.407C215.601 49.0739 215.508 48.6606 215.508 48.171C215.508 47.6293 215.625 47.1638 215.853 46.7665C216.082 46.3692 216.387 46.0401 216.756 45.7713C217.129 45.5064 217.55 45.3098 218.019 45.1814C218.489 45.053 218.962 44.9888 219.431 44.9888C219.981 44.9888 220.51 45.049 221.016 45.1734C221.521 45.2978 221.966 45.4944 222.364 45.7713C222.757 46.0482 223.07 46.3973 223.298 46.8227C223.527 47.248 223.643 47.7657 223.643 48.3757H221.405C221.385 48.0627 221.321 47.8018 221.204 47.5972C221.092 47.3885 220.94 47.228 220.755 47.1116C220.571 46.9952 220.354 46.9109 220.109 46.8628C219.865 46.8146 219.604 46.7906 219.327 46.7906C219.143 46.7906 218.954 46.8106 218.769 46.8508C218.585 46.8909 218.412 46.9591 218.26 47.0594C218.108 47.1557 217.983 47.2801 217.883 47.4366C217.783 47.5891 217.735 47.7737 217.735 47.9864C217.735 48.1991 217.775 48.3596 217.851 48.488C217.927 48.6164 218.084 48.7328 218.316 48.8331C218.549 48.9375 218.866 49.0458 219.271 49.1582C219.68 49.2705 220.209 49.411 220.867 49.5795C220.996 49.6076 221.16 49.6518 221.369 49.7039C221.573 49.7561 221.794 49.8323 222.023 49.9246C222.251 50.0169 222.484 50.1373 222.713 50.2858C222.945 50.4343 223.154 50.6149 223.346 50.8315C223.539 51.0482 223.691 51.3051 223.812 51.602C223.928 51.903 223.988 52.2481 223.988 52.6414C223.988 53.1229 223.896 53.5683 223.707 53.9817C223.519 54.395 223.242 54.7481 222.877 55.0491C222.508 55.3461 222.055 55.5828 221.509 55.7554C220.964 55.9279 220.334 56.0122 219.616 56.0122C219.038 56.0122 218.477 55.94 217.931 55.7915C217.386 55.643 216.908 55.4183 216.495 55.1133C216.082 54.8123 215.753 54.4231 215.5 53.9536C215.252 53.4841 215.131 52.9223 215.139 52.2762H217.378L217.394 52.2601Z" fill="white"/>
</g>
<defs>
<clipPath id="clip0_56_91">
<rect width="224" height="56" fill="white"/>
</clipPath>
</defs>
</svg>
