<svg width="39" height="52" viewBox="0 0 39 52" xmlns="http://www.w3.org/2000/svg">
<g clip-path="url(#clip0_270_37)">
<path d="M31.2032 13.9844C27.0516 13.8126 28.3629 18.8549 26.9133 21.1169C25.5815 23.1945 23.2021 22.7042 22.4005 20.475C21.4452 17.8262 23.9705 14.6315 24.2112 11.7628C24.6543 6.40963 20.5565 0.727899 15.0397 0.0379021C14.1126 -0.0783612 12.9908 0.121308 12.038 0.0379021L13.5926 1.08427C16.0309 3.33119 14.7657 7.2437 13.4979 9.79138C10.5192 15.7865 4.55174 19.3679 1.74214 25.7018C-3.04724 36.494 2.53354 48.78 13.9717 52.0025L12.4248 50.5694C9.99933 47.8499 9.5793 43.9905 11.1903 40.7553C12.7859 37.553 17.4421 34.1106 14.9398 30.4155C19.5192 30.926 22.8666 35.0382 22.6848 39.5826C24.1011 38.6499 24.8541 37.2042 25.1025 35.5715C29.5948 40.1639 27.9992 47.812 23.6529 51.9065C25.5174 51.8281 27.8455 50.6427 29.4411 49.5964C38.3822 43.7352 41.0099 30.4787 34.0999 22.1077C32.1713 19.7698 27.8968 17.346 31.2007 13.987L31.2032 13.9844Z"/>
</g>
</svg>
