<svg width="50" height="60" viewBox="0 0 50 60" fill="none" xmlns="http://www.w3.org/2000/svg">
<g clip-path="url(#clip0_270_31)">
<path d="M29.9145 43.3975C28.7328 42.086 28.1546 40.3179 28.3263 38.5397L29.1015 30.6202H24.0616C21.7992 30.6202 19.6807 29.4026 18.5344 27.4443C17.388 25.486 17.3577 23.0356 18.4586 21.0493L22.5769 13.6093C21.0114 10.616 18.1859 8.27717 14.8252 7.84848C13.9111 7.73179 12.8052 7.93219 11.8659 7.84848L13.3986 8.89866C15.8023 11.1538 14.555 15.0805 13.3051 17.6375C10.366 23.6545 4.48533 27.249 1.71542 33.6059C-3.00632 44.4375 2.49564 56.7683 13.7723 60.0025L12.2472 58.5642C9.85599 55.8348 9.44189 51.9613 11.0301 48.7143C12.6032 45.5004 17.1936 42.0454 14.7267 38.3368C19.2414 38.8492 22.5416 42.9764 22.3623 47.5373C23.7586 46.6013 24.5009 45.1503 24.7459 43.5116C29.1747 48.1207 27.6016 55.7967 23.3167 59.9061C25.1549 59.8275 27.4501 58.6378 29.0232 57.5876C33.3712 54.6857 36.2018 49.9776 37.1385 44.9448C36.3558 45.2924 35.4948 45.4826 34.5984 45.4826C32.8132 45.4826 31.1063 44.7241 29.9095 43.4L29.9145 43.3975Z" fill="#D62028"/>
<path d="M47.9151 14.7508H36.6612L38.0878 1.34444C38.1737 0.525092 37.5248 0 36.8708 0C36.4744 0 36.0754 0.192787 35.8355 0.626559L23.0944 23.6393C22.6829 24.3825 23.2182 25.2957 24.064 25.2957H34.9518L34.3912 31.0337L33.606 39.0623C33.5403 39.7269 34.0706 40.1556 34.6033 40.1556C34.9215 40.1556 35.2447 40.0034 35.4442 39.6584L37.0021 36.9644L48.8746 16.425C49.3038 15.6817 48.7711 14.7508 47.9151 14.7508Z" fill="#D62028"/>
</g>
<defs>
<clipPath id="clip0_270_31">
<rect width="49" height="60" fill="white" transform="translate(0.026123)"/>
</clipPath>
</defs>
</svg>
