<svg width="224" height="56" viewBox="0 0 224 56" fill="none" xmlns="http://www.w3.org/2000/svg">
<g clip-path="url(#clip0_1_3)">
<path d="M16.5905 25.7267V18.5155H32.4069V39.7638H23.4337L23.1128 36.5936H22.9844C21.3077 39.214 18.1429 40.5263 13.4938 40.5263C7.64142 40.5263 3.7465 38.4717 1.80907 34.3544C0.601687 31.738 0 27.059 0 20.3213C0 13.5837 0.774171 8.6478 2.32251 5.95514C4.64903 1.98638 9.36225 0 16.4622 0C22.4429 0 26.6427 1.21992 29.0535 3.65976C31.031 5.69832 32.0218 8.88456 32.0218 13.2185H19.8837V11.6334C19.8837 8.68391 18.7847 7.20717 16.5905 7.20717C15.2106 7.20717 14.2881 7.7168 13.8147 8.73608C13.4698 9.39018 13.2973 10.4857 13.2973 12.0146V28.0742C13.2973 31.5695 14.4164 33.3191 16.6547 33.3191C18.203 33.3191 19.2379 32.7733 19.7554 31.6818C20.1004 30.9916 20.2728 29.9001 20.2728 28.4033V25.7267H16.5945H16.5905Z" fill="#D62028"/>
<path d="M33.8309 39.7638V0.766449H44.7495V30.9194H56.6509V39.7678H33.8269L33.8309 39.7638Z" fill="#D62028"/>
<path d="M75.271 39.7638L74.0716 33.8087H66.7551L65.664 39.7638H54.4165L63.6424 0.766449H77.3488L86.5225 39.7678H75.275L75.271 39.7638ZM72.8682 25.2893L70.5217 9.28583H70.4133L67.9023 25.2893H72.8722H72.8682Z" fill="#D62028"/>
<path d="M101.043 11.9625V10.3774C101.043 8.26657 100.189 7.20717 98.4762 7.20717C96.7634 7.20717 95.9651 8.19033 95.9651 10.1566C95.9651 12.123 97.3731 13.8365 100.185 15.0724C104.93 17.1872 107.562 18.4232 108.075 18.7884C110.887 20.8631 112.295 23.8888 112.295 27.8575C112.295 32.3721 111.172 35.6145 108.929 37.5808C106.687 39.5471 103.029 40.5303 97.9587 40.5303C93.5825 40.5303 90.3735 39.6956 88.3317 38.0182C86.1055 36.2365 84.9944 33.2669 84.9944 29.1136V28.0742H95.5881V29.876C95.5881 32.1714 96.5067 33.3191 98.3438 33.3191C100.181 33.3191 101.047 32.1714 101.047 29.876C101.047 28.7484 100.827 27.8896 100.39 27.3078C100.133 26.9065 99.5672 26.4691 98.6888 25.9956C97.5576 25.4498 95.7485 24.5951 93.2656 23.4273C90.197 21.8984 88.1512 20.4417 87.1284 19.0573C85.9611 17.5283 85.3755 15.3614 85.3755 12.5564C85.3755 7.74891 86.7593 4.36202 89.5271 2.3957C91.7854 0.794553 94.7497 -0.00802612 98.428 -0.00802612C103.486 -0.00802612 107.02 1.17578 109.022 3.54339C110.55 5.36525 111.316 8.17026 111.316 11.9544H101.051L101.043 11.9625Z" fill="#D62028"/>
<path d="M113.218 39.7638V0.766449H128.942C132.399 0.766449 135.083 1.58508 136.996 3.22636C138.906 4.86362 139.864 7.26734 139.864 10.4375C139.864 13.1703 139.134 15.3333 137.678 16.9384C136.587 18.1062 135.239 18.8686 133.639 19.2338V19.3422C138.408 19.8157 140.791 22.8735 140.791 28.5197C140.791 32.3078 139.752 35.165 137.678 37.0952C135.749 38.881 133.037 39.7718 129.543 39.7718H113.218V39.7638ZM124.136 8.63173V16.1158H125.773C127.883 16.1158 128.938 14.8798 128.938 12.3998C128.938 9.91987 127.826 8.63173 125.608 8.63173H124.132H124.136ZM124.136 22.9939V31.8985H126.045C128.376 31.8985 129.539 30.498 129.539 27.693C129.539 24.5589 128.392 22.9939 126.102 22.9939H124.136Z" fill="#D62028"/>
<path d="M142.375 39.7638V0.766449H165.853V9.61489H153.294V15.6222H165.035V24.1416H153.294V30.9154H166.342V39.7638H142.371H142.375Z" fill="#D62028"/>
<path d="M167.49 39.7638V0.766449H190.967V9.61489H178.408V15.6222H190.149V24.1416H178.408V30.9154H191.457V39.7638H167.486H167.49Z" fill="#D62028"/>
<path d="M203.635 15.6222L209.913 0.766449H221.762L212.151 17.9176L222.961 39.7678H210.679L205.107 26.8222L203.523 29.8279V39.7678H192.604V0.766449H203.523V15.6222H203.631H203.635Z" fill="#D62028"/>
<path d="M3.12889 52.26C3.12889 52.6131 3.19307 52.9141 3.32143 53.1589C3.44979 53.4037 3.61826 53.6043 3.82685 53.7568C4.03945 53.9093 4.28413 54.0217 4.56091 54.0979C4.84169 54.1701 5.13853 54.2062 5.4514 54.2062C5.65598 54.2062 5.8766 54.1902 6.11326 54.1541C6.34992 54.118 6.57054 54.0538 6.77512 53.9534C6.97969 53.8571 7.15217 53.7207 7.28855 53.5481C7.42494 53.3756 7.49313 53.1589 7.49313 52.894C7.49313 52.6091 7.40087 52.3804 7.22036 52.2038C7.03986 52.0272 6.79918 51.8788 6.50636 51.7544C6.21354 51.634 5.88061 51.5296 5.50756 51.4454C5.13452 51.3611 4.75746 51.2648 4.37639 51.1564C3.98329 51.0601 3.60222 50.9397 3.22917 50.7953C2.85613 50.6508 2.52319 50.4702 2.23037 50.2455C1.93755 50.0208 1.69688 49.7399 1.51637 49.4068C1.33587 49.0737 1.24361 48.6604 1.24361 48.1708C1.24361 47.6291 1.35993 47.1636 1.58857 46.7663C1.82123 46.3691 2.12207 46.04 2.49512 45.7711C2.86816 45.5063 3.28934 45.3096 3.76267 45.1812C4.23199 45.0528 4.70531 44.9886 5.17463 44.9886C5.72417 44.9886 6.24964 45.0488 6.75506 45.1732C7.26048 45.2976 7.70974 45.4942 8.10284 45.7711C8.49594 46.048 8.80481 46.3971 9.03746 46.8225C9.27011 47.2479 9.38242 47.7655 9.38242 48.3755H7.14415C7.12409 48.0625 7.05991 47.8017 6.94359 47.597C6.83127 47.3883 6.68286 47.2278 6.49433 47.1114C6.30981 46.9951 6.0932 46.9108 5.84852 46.8626C5.60383 46.8145 5.3431 46.7904 5.07034 46.7904C4.88181 46.7904 4.69729 46.8105 4.51277 46.8506C4.32826 46.8907 4.15577 46.9589 4.00334 47.0593C3.85092 47.1556 3.72657 47.28 3.62629 47.4365C3.53002 47.589 3.47787 47.7736 3.47787 47.9863C3.47787 48.1989 3.51798 48.3595 3.5942 48.4879C3.67041 48.6163 3.82685 48.7327 4.05549 48.833C4.28413 48.9373 4.60503 49.0457 5.01418 49.158C5.41931 49.2704 5.95281 49.4108 6.61065 49.5794C6.73901 49.6075 6.90347 49.6516 7.11206 49.7038C7.31663 49.7559 7.53725 49.8322 7.76589 49.9245C7.99453 50.0168 8.22719 50.1372 8.45583 50.2856C8.68447 50.4341 8.89706 50.6147 9.0896 50.8314C9.28214 51.0481 9.43457 51.3049 9.55491 51.6019C9.67123 51.9028 9.7314 52.2479 9.7314 52.6412C9.7314 53.1228 9.63914 53.5682 9.45062 53.9815C9.2661 54.3949 8.98531 54.748 8.62029 55.049C8.25125 55.3459 7.79798 55.5827 7.25245 55.7552C6.70692 55.9278 6.07716 56.012 5.36316 56.012C4.78554 56.012 4.22396 55.9398 3.67843 55.7913C3.1329 55.6429 2.65557 55.4181 2.24241 55.1132C1.82925 54.8122 1.50033 54.4229 1.24762 53.9534C0.998921 53.4839 0.878584 52.9221 0.886607 52.276H3.12488L3.12889 52.26Z" fill="#010101"/>
<path d="M19.4346 51.7744C19.4346 53.199 19.0375 54.2584 18.2433 54.9567C17.449 55.6549 16.35 56 14.946 56C13.5421 56 12.423 55.6549 11.6408 54.9607C10.8586 54.2665 10.4695 53.207 10.4695 51.7744V45.2374H12.78V51.7744C12.78 52.0594 12.804 52.3403 12.8522 52.6131C12.9003 52.89 13.0046 53.1348 13.161 53.3475C13.3175 53.5642 13.5341 53.7367 13.8149 53.8652C14.0956 53.9936 14.4687 54.0538 14.942 54.0538C15.7643 54.0538 16.3339 53.8692 16.6508 53.504C16.9637 53.1348 17.1201 52.561 17.1201 51.7744V45.2374H19.4306V51.7744H19.4346Z" fill="#010101"/>
<path d="M20.8304 45.2374H26.4943C26.9636 45.2374 27.3888 45.3137 27.7659 45.4662C28.1429 45.6187 28.4678 45.8273 28.7366 46.0922C29.0053 46.357 29.2139 46.666 29.3543 47.0192C29.4947 47.3723 29.5669 47.7455 29.5669 48.1388C29.5669 48.7567 29.4345 49.2905 29.1778 49.7439C28.9171 50.1974 28.4919 50.5385 27.9063 50.7752V50.8033C28.1911 50.8836 28.4277 51.004 28.6122 51.1645C28.7968 51.325 28.9492 51.5216 29.0695 51.7463C29.1859 51.9711 29.2741 52.2159 29.3262 52.4767C29.3784 52.7375 29.4185 52.9984 29.4386 53.2632C29.4466 53.4278 29.4586 53.6284 29.4666 53.8531C29.4747 54.0778 29.4947 54.3066 29.5188 54.5393C29.5429 54.7721 29.583 54.9928 29.6351 55.2095C29.6873 55.4262 29.7715 55.6068 29.8798 55.7552H27.5693C27.5011 55.5867 27.449 55.4021 27.4129 55.2015C27.3808 55.0008 27.3487 54.7881 27.3246 54.5674C27.3006 54.3467 27.2805 54.118 27.2645 53.8892C27.2484 53.6605 27.2284 53.4398 27.2003 53.2351C27.1201 52.6854 26.9556 52.2841 26.6989 52.0272C26.4422 51.7744 26.025 51.646 25.4474 51.646H23.1369V55.7552H20.8264V45.2455L20.8304 45.2374ZM23.1409 49.9927H25.672C26.1935 49.9927 26.5866 49.8763 26.8553 49.6396C27.1241 49.4028 27.2605 49.0216 27.2605 48.4919C27.2605 47.9622 27.1241 47.609 26.8553 47.3803C26.5866 47.1476 26.1895 47.0352 25.672 47.0352H23.1409V49.9927Z" fill="#010101"/>
<path d="M30.8667 45.2374H38.2554V47.1797H33.1772V49.6075H37.5775V51.4012H33.1772V55.7432H30.8667V45.2334V45.2374Z" fill="#010101"/>
<path d="M41.0634 45.2374H43.434L47.361 55.7472H44.9623L44.1681 53.4077H40.241L39.4147 55.7472H37.0762L41.0634 45.2374ZM40.8427 51.6862H43.5664L42.2427 47.8298H42.2146L40.8467 51.6862H40.8427Z" fill="#010101"/>
<path d="M54.6893 48.7688C54.6492 48.5039 54.561 48.2631 54.4246 48.0384C54.2882 47.8177 54.1157 47.6211 53.9111 47.4565C53.7066 47.288 53.4699 47.1596 53.2132 47.0673C52.9525 46.975 52.6797 46.9268 52.3949 46.9268C51.8734 46.9268 51.4322 47.0272 51.0712 47.2278C50.7102 47.4284 50.4133 47.6973 50.1887 48.0384C49.9641 48.3755 49.7996 48.7607 49.6953 49.1941C49.591 49.6275 49.5389 50.0729 49.5389 50.5344C49.5389 50.9959 49.591 51.4052 49.6953 51.8226C49.7996 52.2399 49.9641 52.6171 50.1887 52.9502C50.4133 53.2833 50.7102 53.5521 51.0712 53.7528C51.4322 53.9534 51.8734 54.0537 52.3949 54.0537C53.1009 54.0537 53.6544 53.837 54.0515 53.3996C54.4487 52.9622 54.6933 52.3964 54.7816 51.6982H57.0199C56.9597 52.3563 56.8073 52.9502 56.5626 53.4799C56.3179 54.0096 55.993 54.4631 55.5919 54.8363C55.1907 55.2095 54.7174 55.4944 54.1799 55.699C53.6384 55.8997 53.0487 56 52.3989 56C51.5846 56 50.8586 55.8555 50.2208 55.5706C49.583 55.2857 49.0415 54.9005 48.6003 54.4109C48.159 53.9213 47.8221 53.3394 47.5854 52.6733C47.3487 52.0072 47.2324 51.2929 47.2324 50.5384C47.2324 49.784 47.3487 49.0376 47.5854 48.3594C47.8221 47.6813 48.159 47.0914 48.6003 46.5938C49.0415 46.0921 49.583 45.7029 50.2208 45.418C50.8586 45.1331 51.5846 44.9926 52.3989 44.9926C52.9765 44.9926 53.5261 45.0769 54.0395 45.2414C54.5529 45.4059 55.0142 45.6507 55.4234 45.9677C55.8285 46.2888 56.1655 46.682 56.4302 47.1516C56.6949 47.6211 56.8634 48.1628 56.9316 48.7728H54.6933L54.6893 48.7688Z" fill="#010101"/>
<path d="M58.0027 45.2374H65.8607V47.1797H60.3132V49.4309H65.4034V51.2247H60.3132V53.8009H65.977V55.7432H58.0027V45.2334V45.2374Z" fill="#010101"/>
<path d="M72.7763 47.1797H69.6274V45.2374H78.2356V47.1797H75.0867V55.7472H72.7763V47.1797Z" fill="#010101"/>
<path d="M78.8532 45.2374H84.5171C84.9864 45.2374 85.4116 45.3137 85.7887 45.4662C86.1657 45.6187 86.4906 45.8273 86.7594 46.0922C87.0282 46.357 87.2367 46.666 87.3771 47.0192C87.5215 47.3723 87.5897 47.7455 87.5897 48.1388C87.5897 48.7567 87.4614 49.2905 87.2006 49.7439C86.9399 50.1974 86.5147 50.5385 85.9291 50.7752V50.8033C86.2139 50.8836 86.4505 51.004 86.6351 51.1645C86.8196 51.325 86.972 51.5216 87.0923 51.7463C87.2087 51.9711 87.2969 52.2159 87.3491 52.4767C87.4012 52.7375 87.4413 52.9984 87.4574 53.2632C87.4654 53.4278 87.4774 53.6284 87.4854 53.8531C87.4935 54.0778 87.5135 54.3066 87.5376 54.5393C87.5617 54.7721 87.6018 54.9928 87.6539 55.2095C87.7061 55.4262 87.7903 55.6068 87.8986 55.7552H85.5881C85.5199 55.5867 85.4678 55.4021 85.4317 55.2015C85.3956 55.0008 85.3675 54.7881 85.3434 54.5674C85.3194 54.3467 85.2993 54.118 85.2833 53.8892C85.2672 53.6605 85.2472 53.4398 85.2191 53.2351C85.1389 52.6854 84.9744 52.2841 84.7177 52.0272C84.461 51.7744 84.0438 51.646 83.4662 51.646H81.1557V55.7552H78.8452V45.2455L78.8532 45.2374ZM81.1637 49.9927H83.6948C84.2163 49.9927 84.6094 49.8763 84.8781 49.6396C85.1469 49.4028 85.2833 49.0216 85.2833 48.4919C85.2833 47.9622 85.1469 47.609 84.8781 47.3803C84.6094 47.1476 84.2123 47.0352 83.6948 47.0352H81.1637V49.9927Z" fill="#010101"/>
<path d="M88.8894 45.2374H96.7474V47.1797H91.1999V49.4309H96.2902V51.2247H91.1999V53.8009H96.8638V55.7432H88.8894V45.2334V45.2374Z" fill="#010101"/>
<path d="M100.707 45.2374H103.077L107.004 55.7472H104.605L103.811 53.4077H99.8842L99.0619 55.7472H96.7234L100.711 45.2374H100.707ZM100.486 51.6862H103.21L101.886 47.8298H101.858L100.49 51.6862H100.486Z" fill="#010101"/>
<path d="M108.564 47.1797H105.416V45.2374H114.024V47.1797H110.875V55.7472H108.564V47.1797Z" fill="#010101"/>
<path d="M114.642 45.2374H117.895L120.354 52.4647H120.382L122.708 45.2374H125.961V55.7472H123.799V48.2993H123.771L121.196 55.7472H119.415L116.84 48.3715H116.812V55.7472H114.65V45.2374H114.642Z" fill="#010101"/>
<path d="M127.397 45.2374H135.255V47.1797H129.708V49.4309H134.798V51.2247H129.708V53.8009H135.372V55.7432H127.397V45.2334V45.2374Z" fill="#010101"/>
<path d="M136.346 45.2374H138.641L143.025 52.2881H143.053V45.2374H145.215V55.7472H142.905L138.537 48.7086H138.508V55.7472H136.346V45.2374Z" fill="#010101"/>
<path d="M148.986 47.1797H145.837V45.2374H154.445V47.1797H151.296V55.7472H148.986V47.1797Z" fill="#010101"/>
<path d="M160.137 52.26C160.137 52.6131 160.201 52.9141 160.33 53.1589C160.458 53.4037 160.626 53.6043 160.839 53.7568C161.052 53.9093 161.296 54.0217 161.573 54.0979C161.854 54.1701 162.151 54.2062 162.464 54.2062C162.668 54.2062 162.889 54.1902 163.125 54.1541C163.362 54.118 163.583 54.0538 163.787 53.9534C163.992 53.8571 164.164 53.7207 164.301 53.5481C164.437 53.3756 164.505 53.1589 164.505 52.894C164.505 52.6091 164.413 52.3804 164.233 52.2038C164.052 52.0272 163.815 51.8788 163.519 51.7544C163.226 51.634 162.889 51.5296 162.516 51.4454C162.143 51.3611 161.766 51.2648 161.385 51.1564C160.991 51.0601 160.61 50.9397 160.237 50.7953C159.864 50.6508 159.531 50.4702 159.235 50.2455C158.942 50.0208 158.701 49.7399 158.521 49.4068C158.34 49.0737 158.248 48.6604 158.248 48.1708C158.248 47.6291 158.364 47.1636 158.593 46.7663C158.821 46.3691 159.122 46.04 159.499 45.7711C159.872 45.5063 160.293 45.3096 160.767 45.1812C161.236 45.0528 161.709 44.9886 162.179 44.9886C162.728 44.9886 163.254 45.0488 163.759 45.1732C164.265 45.2976 164.714 45.4942 165.107 45.7711C165.5 46.048 165.809 46.3971 166.042 46.8225C166.27 47.2479 166.387 47.7655 166.387 48.3755H164.148C164.128 48.0625 164.064 47.8017 163.948 47.597C163.835 47.3883 163.687 47.2278 163.498 47.1114C163.314 46.9951 163.097 46.9108 162.853 46.8626C162.608 46.8145 162.347 46.7904 162.07 46.7904C161.886 46.7904 161.697 46.8105 161.513 46.8506C161.328 46.8907 161.156 46.9589 161.003 47.0593C160.851 47.1556 160.727 47.28 160.63 47.4365C160.53 47.589 160.482 47.7736 160.482 47.9863C160.482 48.1989 160.522 48.3595 160.598 48.4879C160.679 48.6163 160.831 48.7327 161.064 48.833C161.292 48.9373 161.613 49.0457 162.018 49.158C162.423 49.2704 162.957 49.4108 163.615 49.5794C163.743 49.6075 163.908 49.6516 164.116 49.7038C164.321 49.7559 164.541 49.8322 164.77 49.9245C164.999 50.0168 165.231 50.1372 165.46 50.2856C165.689 50.4341 165.901 50.6147 166.094 50.8314C166.286 51.0481 166.439 51.3049 166.559 51.6019C166.675 51.9028 166.736 52.2479 166.736 52.6412C166.736 53.1228 166.643 53.5682 166.455 53.9815C166.27 54.3949 165.989 54.748 165.624 55.049C165.255 55.3459 164.802 55.5827 164.257 55.7552C163.711 55.9278 163.081 56.012 162.367 56.012C161.79 56.012 161.228 55.9398 160.683 55.7913C160.137 55.6429 159.66 55.4181 159.247 55.1132C158.833 54.8122 158.504 54.4229 158.252 53.9534C158.003 53.4839 157.883 52.9221 157.891 52.276H160.129L160.137 52.26Z" fill="#010101"/>
<path d="M170.25 51.658L166.379 45.2414H168.982L171.437 49.3908L173.88 45.2414H176.455L172.556 51.7182V55.7512H170.246V51.658H170.25Z" fill="#010101"/>
<path d="M178.324 52.26C178.324 52.6131 178.388 52.9141 178.517 53.1589C178.645 53.4037 178.813 53.6043 179.022 53.7568C179.235 53.9093 179.479 54.0217 179.756 54.0979C180.037 54.1701 180.334 54.2062 180.647 54.2062C180.851 54.2062 181.072 54.1902 181.308 54.1541C181.545 54.118 181.766 54.0538 181.97 53.9534C182.175 53.8571 182.347 53.7207 182.488 53.5481C182.624 53.3756 182.692 53.1589 182.692 52.894C182.692 52.6091 182.6 52.3804 182.42 52.2038C182.239 52.0272 181.998 51.8788 181.706 51.7544C181.409 51.634 181.076 51.5296 180.703 51.4454C180.33 51.3611 179.953 51.2648 179.568 51.1564C179.174 51.0601 178.793 50.9397 178.42 50.7953C178.047 50.6508 177.714 50.4702 177.421 50.2455C177.129 50.0208 176.888 49.7399 176.707 49.4068C176.527 49.0737 176.435 48.6604 176.435 48.1708C176.435 47.6291 176.551 47.1636 176.78 46.7663C177.008 46.3691 177.313 46.04 177.686 45.7711C178.059 45.5063 178.48 45.3096 178.95 45.1812C179.419 45.0528 179.892 44.9886 180.362 44.9886C180.911 44.9886 181.437 45.0488 181.942 45.1732C182.448 45.2976 182.897 45.4942 183.29 45.7711C183.683 46.048 183.992 46.3971 184.225 46.8225C184.457 47.2479 184.57 47.7655 184.57 48.3755H182.331C182.311 48.0625 182.247 47.8017 182.131 47.597C182.018 47.3883 181.87 47.2278 181.681 47.1114C181.497 46.9951 181.28 46.9108 181.036 46.8626C180.791 46.8145 180.53 46.7904 180.257 46.7904C180.073 46.7904 179.884 46.8105 179.7 46.8506C179.511 46.8907 179.343 46.9589 179.19 47.0593C179.038 47.1556 178.914 47.28 178.813 47.4365C178.717 47.589 178.665 47.7736 178.665 47.9863C178.665 48.1989 178.705 48.3595 178.781 48.4879C178.862 48.6163 179.014 48.7327 179.247 48.833C179.479 48.9373 179.796 49.0457 180.201 49.158C180.61 49.2704 181.14 49.4108 181.798 49.5794C181.926 49.6075 182.091 49.6516 182.299 49.7038C182.504 49.7559 182.724 49.8322 182.953 49.9245C183.182 50.0168 183.414 50.1372 183.643 50.2856C183.872 50.4341 184.084 50.6147 184.277 50.8314C184.469 51.0481 184.622 51.3049 184.738 51.6019C184.854 51.9028 184.915 52.2479 184.915 52.6412C184.915 53.1228 184.822 53.5682 184.634 53.9815C184.449 54.3949 184.168 54.748 183.803 55.049C183.434 55.3459 182.981 55.5827 182.436 55.7552C181.89 55.9278 181.26 56.012 180.546 56.012C179.969 56.012 179.407 55.9398 178.862 55.7913C178.316 55.6429 177.839 55.4181 177.426 55.1132C177.012 54.8122 176.683 54.4229 176.431 53.9534C176.182 53.4839 176.062 52.9221 176.07 52.276H178.308L178.324 52.26Z" fill="#010101"/>
<path d="M188.039 47.1797H184.89V45.2374H193.499V47.1797H190.35V55.7472H188.039V47.1797Z" fill="#010101"/>
<path d="M194.116 45.2374H201.974V47.1797H196.427V49.4309H201.517V51.2247H196.427V53.8009H202.091V55.7432H194.116V45.2334V45.2374Z" fill="#010101"/>
<path d="M203.062 45.2374H206.315L208.774 52.4647H208.802L211.128 45.2374H214.381V55.7472H212.219V48.2993H212.191L209.616 55.7472H207.835L205.26 48.3715H205.232V55.7472H203.07V45.2374H203.062Z" fill="#010101"/>
<path d="M217.394 52.26C217.394 52.6131 217.458 52.9141 217.586 53.1589C217.715 53.4037 217.883 53.6043 218.092 53.7568C218.304 53.9093 218.549 54.0217 218.83 54.0979C219.11 54.1701 219.407 54.2062 219.72 54.2062C219.925 54.2062 220.145 54.1902 220.382 54.1541C220.615 54.118 220.839 54.0538 221.044 53.9534C221.248 53.8571 221.421 53.7207 221.557 53.5481C221.694 53.3756 221.766 53.1589 221.766 52.894C221.766 52.6091 221.674 52.3804 221.493 52.2038C221.313 52.0272 221.072 51.8788 220.779 51.7544C220.486 51.634 220.149 51.5296 219.776 51.4454C219.403 51.3611 219.026 51.2648 218.641 51.1564C218.248 51.0601 217.867 50.9397 217.494 50.7953C217.121 50.6508 216.788 50.4702 216.495 50.2455C216.198 50.0208 215.962 49.7399 215.781 49.4068C215.601 49.0737 215.508 48.6604 215.508 48.1708C215.508 47.6291 215.625 47.1636 215.853 46.7663C216.082 46.3691 216.387 46.04 216.756 45.7711C217.129 45.5063 217.55 45.3096 218.019 45.1812C218.489 45.0528 218.962 44.9886 219.431 44.9886C219.981 44.9886 220.51 45.0488 221.016 45.1732C221.521 45.2976 221.966 45.4942 222.364 45.7711C222.757 46.048 223.07 46.3971 223.298 46.8225C223.527 47.2479 223.643 47.7655 223.643 48.3755H221.405C221.385 48.0625 221.321 47.8017 221.204 47.597C221.092 47.3883 220.94 47.2278 220.755 47.1114C220.571 46.9951 220.354 46.9108 220.109 46.8626C219.865 46.8145 219.604 46.7904 219.327 46.7904C219.143 46.7904 218.954 46.8105 218.769 46.8506C218.585 46.8907 218.412 46.9589 218.26 47.0593C218.108 47.1556 217.983 47.28 217.883 47.4365C217.783 47.589 217.735 47.7736 217.735 47.9863C217.735 48.1989 217.775 48.3595 217.851 48.4879C217.927 48.6163 218.084 48.7327 218.316 48.833C218.549 48.9373 218.866 49.0457 219.271 49.158C219.68 49.2704 220.209 49.4108 220.867 49.5794C220.996 49.6075 221.16 49.6516 221.369 49.7038C221.573 49.7559 221.794 49.8322 222.023 49.9245C222.251 50.0168 222.484 50.1372 222.713 50.2856C222.945 50.4341 223.154 50.6147 223.346 50.8314C223.539 51.0481 223.691 51.3049 223.812 51.6019C223.928 51.9028 223.988 52.2479 223.988 52.6412C223.988 53.1228 223.896 53.5682 223.707 53.9815C223.519 54.3949 223.242 54.748 222.877 55.049C222.508 55.3459 222.055 55.5827 221.509 55.7552C220.964 55.9278 220.334 56.012 219.616 56.012C219.038 56.012 218.477 55.9398 217.931 55.7913C217.386 55.6429 216.908 55.4181 216.495 55.1132C216.082 54.8122 215.753 54.4229 215.5 53.9534C215.252 53.4839 215.131 52.9221 215.139 52.276H217.378L217.394 52.26Z" fill="#010101"/>
</g>
<defs>
<clipPath id="clip0_1_3">
<rect width="224" height="56" fill="white"/>
</clipPath>
</defs>
</svg>
