<?xml version="1.0" encoding="UTF-8"?>
<!DOCTYPE svg PUBLIC "-//W3C//DTD SVG 1.1//EN" "http://www.w3.org/Graphics/SVG/1.1/DTD/svg11.dtd">
<svg xmlns="http://www.w3.org/2000/svg" xmlns:xlink="http://www.w3.org/1999/xlink">
	<defs>
    <clipPath id="a">
      <path fill="#fff" transform="translate(.026)" d="M0 0h38v52H0z"/>
    </clipPath>
  </defs>
<symbol id="arrow-left" viewBox="0 0 52 52">
  <path d="M36 27.25a1.25 1.25 0 1 0 0-2.5v2.5Zm-20.884-2.134a1.25 1.25 0 0 0 0 1.768l7.955 7.955a1.25 1.25 0 1 0 1.768-1.768L17.768 26l7.07-7.071a1.25 1.25 0 1 0-1.767-1.768l-7.955 7.955ZM36 24.75H16v2.5h20v-2.5Z"/>
</symbol>
<symbol id="arrow-right" viewBox="0 0 52 52">
  <path d="M16 24.75a1.25 1.25 0 1 0 0 2.5v-2.5Zm20.884 2.134a1.25 1.25 0 0 0 0-1.768l-7.955-7.955a1.25 1.25 0 1 0-1.768 1.768L34.232 26l-7.07 7.071a1.25 1.25 0 1 0 1.767 1.768l7.955-7.955ZM16 27.25h20v-2.5H16v2.5Z"/>
</symbol>
<symbol id="classic" viewBox="0 0 39 52">
  <g clip-path="url(#clip0_270_37)">
    <path d="M31.203 13.984c-4.151-.171-2.84 4.87-4.29 7.133-1.332 2.078-3.71 1.587-4.512-.642-.956-2.649 1.57-5.844 1.81-8.712C24.654 6.41 20.557.728 15.04.038c-.927-.116-2.05.083-3.002 0l1.555 1.046c2.438 2.247 1.173 6.16-.095 8.707-2.979 5.995-8.946 9.577-11.756 15.91-4.79 10.793.792 23.079 12.23 26.301l-1.547-1.433c-2.426-2.72-2.846-6.579-1.235-9.814 1.596-3.202 6.252-6.644 3.75-10.34 4.58.511 7.927 4.623 7.745 9.168 1.416-.933 2.17-2.379 2.418-4.011 4.492 4.592 2.896 12.24-1.45 16.334 1.864-.078 4.193-1.263 5.788-2.31 8.941-5.86 11.569-19.117 4.659-27.488-1.929-2.338-6.203-4.762-2.9-8.121l.003-.003Z"/>
  </g>
</symbol>
<symbol id="electric" viewBox="0 0 35 53">
  <path d="M32.576 19.846H17.89L19.75 2.351c.112-1.07-.735-1.755-1.588-1.755-.517 0-1.038.252-1.351.818L.185 31.446c-.537.97.161 2.162 1.265 2.162H15.66l-.732 7.488-1.025 10.477c-.085.868.607 1.427 1.302 1.427.415 0 .837-.199 1.097-.649l2.033-3.515L33.828 22.03c.56-.97-.135-2.185-1.252-2.185Z"/>
</symbol>
<symbol id="fire" viewBox="0 0 39 52">
  <g clip-path="url(#a)">
    <path d="M31.203 13.984c-4.151-.171-2.84 4.87-4.29 7.133-1.332 2.078-3.71 1.587-4.512-.642-.956-2.649 1.57-5.844 1.81-8.712C24.654 6.41 20.557.728 15.04.038c-.927-.116-2.05.083-3.002 0l1.555 1.046c2.438 2.247 1.173 6.16-.095 8.707-2.979 5.995-8.946 9.577-11.756 15.91-4.79 10.793.792 23.079 12.23 26.301l-1.547-1.433c-2.426-2.72-2.846-6.579-1.235-9.814 1.596-3.202 6.252-6.644 3.75-10.34 4.58.511 7.927 4.623 7.745 9.168 1.416-.933 2.17-2.379 2.418-4.011 4.492 4.592 2.896 12.24-1.45 16.334 1.864-.078 4.193-1.263 5.788-2.31 8.941-5.86 11.569-19.117 4.659-27.488-1.929-2.338-6.203-4.762-2.9-8.121l.003-.003Z"/>
  </g>
  
</symbol>
<symbol id="hybrid" viewBox="0 0 50 60">
  <g clip-path="url(#clip0_270_31)">
    <path d="M29.915 43.398a6.351 6.351 0 0 1-1.589-4.858l.776-7.92h-5.04a6.432 6.432 0 0 1-5.528-3.176 6.488 6.488 0 0 1-.075-6.395l4.118-7.44c-1.566-2.993-4.391-5.332-7.752-5.76-.914-.117-2.02.083-2.96 0l1.534 1.05c2.403 2.255 1.156 6.182-.094 8.739-2.939 6.016-8.82 9.611-11.59 15.968-4.721 10.831.78 23.162 12.057 26.396l-1.525-1.438c-2.391-2.73-2.805-6.603-1.217-9.85 1.573-3.214 6.164-6.669 3.697-10.377 4.514.512 7.815 4.64 7.635 9.2 1.397-.936 2.139-2.387 2.384-4.025 4.429 4.609 2.856 12.285-1.43 16.394 1.839-.078 4.134-1.268 5.707-2.318 4.348-2.902 7.179-7.61 8.116-12.643a6.247 6.247 0 0 1-2.54.538 6.327 6.327 0 0 1-4.69-2.083l.006-.002Z"/>
    <path d="M47.915 14.75H36.661l1.427-13.406C38.174.525 37.525 0 36.87 0c-.397 0-.796.193-1.035.627L23.094 23.639a1.115 1.115 0 0 0 .97 1.657h10.888l-.56 5.738-.786 8.028c-.066.665.465 1.094.997 1.094a.955.955 0 0 0 .841-.498l1.558-2.694 11.873-20.539c.429-.743-.104-1.674-.96-1.674Z"/>
  </g>
</symbol>
<symbol id="linkedin" viewBox="0 0 176 176"><g style="enable-background:new 0 0 512 512">
  <path d="M152 0H24A24 24 0 0 0 0 24v128a24 24 0 0 0 24 24h128a24 24 0 0 0 24-24V24a24 24 0 0 0-24-24zM60 139.28a3.71 3.71 0 0 1-3.71 3.72H40.48a3.71 3.71 0 0 1-3.72-3.72V73a3.72 3.72 0 0 1 3.72-3.72h15.81A3.72 3.72 0 0 1 60 73zM48.38 63a15 15 0 1 1 15-15 15 15 0 0 1-15 15zm94.26 76.54a3.41 3.41 0 0 1-3.42 3.42h-17a3.41 3.41 0 0 1-3.42-3.42v-31.05c0-4.64 1.36-20.32-12.13-20.32-10.45 0-12.58 10.73-13 15.55v35.86A3.42 3.42 0 0 1 90.3 143H73.88a3.41 3.41 0 0 1-3.41-3.42V72.71a3.41 3.41 0 0 1 3.41-3.42H90.3a3.42 3.42 0 0 1 3.42 3.42v5.78c3.88-5.83 9.63-10.31 21.9-10.31 27.18 0 27 25.38 27 39.32z" data-name="Layer 2" data-original="#000000"/>
</g></symbol>
<symbol id="menu-close" viewBox="0 0 24 24"><g fill="none">
  <path d="M1.747 22.253 22.253 1.747M22.253 22.253 1.747 1.747" stroke="#fff" stroke-width="3" stroke-linecap="round"/>
</g></symbol>
<symbol id="menu-open" viewBox="0 0 41 33"><g fill="none">
  <path stroke="#fff" stroke-width="5" stroke-linecap="round" d="M2.5 2.5h36M2.5 16.5h23M2.5 30.5h31"/>
</g></symbol>
<symbol id="plus" viewBox="0 0 20 20">
  <path d="M9 1h1v17H9z"/>
  <path d="M1 9h17v1H1z"/>
</symbol>
<symbol id="triangle-down" viewBox="0 0 10 8">
  <path d="M5 8 0 0h10Z"/>
</symbol>
</svg>